<svg width="384" height="156" viewBox="0 0 384 156" fill="none" xmlns="http://www.w3.org/2000/svg">
<rect width="384" height="156" rx="2" fill="url(#paint0_linear_1774_165835)" fill-opacity="0.2"/>
<path d="M185.146 42.6406H197.328L184.699 80.0615C184.571 80.4397 184.328 80.7683 184.004 81.0011C183.68 81.2338 183.291 81.3589 182.892 81.3588H173.366C173.063 81.3589 172.765 81.2869 172.495 81.1486C172.226 81.0104 171.993 80.81 171.817 80.5639C171.64 80.318 171.525 80.0335 171.48 79.734C171.435 79.4345 171.462 79.1287 171.559 78.8418L183.339 43.9377C183.467 43.5597 183.71 43.2312 184.034 42.9985C184.358 42.7658 184.747 42.6406 185.146 42.6406Z" fill="url(#paint1_linear_1774_165835)"/>
<path d="M201.963 67.0195H182.764C182.586 67.0197 182.412 67.0733 182.265 67.1734C182.118 67.2736 182.004 67.4158 181.939 67.5815C181.873 67.7471 181.86 67.9286 181.899 68.1023C181.938 68.2759 182.029 68.4338 182.159 68.5553L195.324 80.8465C195.678 81.1763 196.143 81.3597 196.626 81.3597H207.507L201.963 67.0195Z" fill="#55359F"/>
<g opacity="0.5">
<path opacity="0.5" d="M198.545 81.3588H207.495L201.952 67.0186H194.653L198.876 79.5176C198.981 79.8274 199.006 80.1588 198.949 80.481C198.891 80.8032 198.752 81.1052 198.545 81.3588ZM191.875 58.7836L197.323 42.6406H186.27C186.433 42.8299 186.559 43.0493 186.639 43.2865L191.875 58.7836Z" fill="black"/>
</g>
<g opacity="0.5">
<path opacity="0.5" d="M185.58 42.6406L191.52 59.8464L192.343 57.3988L187.369 42.6406H185.58ZM196.833 81.3588H199.4C199.565 81.0422 199.664 80.6954 199.691 80.3393C199.718 79.9833 199.673 79.6255 199.557 79.2877L195.412 67.0186H193.896L198.196 79.7474C198.259 79.931 198.276 80.1268 198.247 80.3185C198.219 80.5102 198.145 80.6923 198.032 80.8497C197.919 81.0072 197.77 81.1356 197.597 81.224C197.425 81.3126 197.234 81.3588 197.04 81.3586L196.833 81.3588Z" fill="black" fill-opacity="0.5"/>
</g>
<path d="M200.665 43.9379C200.538 43.5598 200.295 43.2313 199.97 42.9985C199.646 42.7658 199.257 42.6406 198.858 42.6406H185.286C185.691 42.6407 186.086 42.7677 186.415 43.0037C186.744 43.2398 186.991 43.5731 187.121 43.9567L198.881 78.8038C198.98 79.0948 199.007 79.4053 198.962 79.7092C198.916 80.013 198.799 80.3018 198.62 80.5515C198.44 80.8011 198.204 81.0045 197.931 81.1448C197.658 81.285 197.355 81.3581 197.047 81.3581H210.638C210.941 81.3581 211.24 81.286 211.509 81.1477C211.778 81.0095 212.011 80.8091 212.188 80.5631C212.364 80.3172 212.48 80.0326 212.525 79.7332C212.569 79.4337 212.542 79.1278 212.445 78.8409L200.665 43.9379Z" fill="url(#paint2_linear_1774_165835)"/>
<path d="M181.68 111H179.641L178.633 108.148H174.227L173.258 111H171.227L175.422 99.7969H177.516L181.68 111ZM178.141 106.633L176.586 102.164C176.539 102.018 176.49 101.784 176.438 101.461H176.406C176.359 101.758 176.307 101.992 176.25 102.164L174.711 106.633H178.141ZM188.93 103.758L184.609 109.586H188.914V111H182.07V110.32L186.484 104.414H182.492V103H188.93V103.758ZM197.438 111H195.625V109.734H195.594C195.068 110.703 194.25 111.188 193.141 111.188C191.25 111.188 190.305 110.052 190.305 107.781V103H192.117V107.594C192.117 109.031 192.672 109.75 193.781 109.75C194.318 109.75 194.758 109.552 195.102 109.156C195.451 108.76 195.625 108.242 195.625 107.602V103H197.438V111ZM204.445 104.727C204.227 104.555 203.911 104.469 203.5 104.469C202.964 104.469 202.516 104.711 202.156 105.195C201.797 105.68 201.617 106.339 201.617 107.172V111H199.805V103H201.617V104.648H201.648C201.826 104.086 202.096 103.648 202.461 103.336C202.831 103.018 203.242 102.859 203.695 102.859C204.023 102.859 204.273 102.909 204.445 103.008V104.727ZM212.359 107.492H206.906C206.927 108.232 207.154 108.802 207.586 109.203C208.023 109.604 208.622 109.805 209.383 109.805C210.237 109.805 211.021 109.549 211.734 109.039V110.5C211.005 110.958 210.042 111.188 208.844 111.188C207.667 111.188 206.742 110.826 206.07 110.102C205.404 109.372 205.07 108.349 205.07 107.031C205.07 105.786 205.438 104.773 206.172 103.992C206.911 103.206 207.828 102.812 208.922 102.812C210.016 102.812 210.862 103.164 211.461 103.867C212.06 104.57 212.359 105.547 212.359 106.797V107.492ZM210.609 106.211C210.604 105.56 210.451 105.055 210.148 104.695C209.846 104.331 209.43 104.148 208.898 104.148C208.378 104.148 207.935 104.339 207.57 104.719C207.211 105.099 206.99 105.596 206.906 106.211H210.609Z" fill="black"/>
<defs>
<linearGradient id="paint0_linear_1774_165835" x1="-61" y1="193" x2="424" y2="-163" gradientUnits="userSpaceOnUse">
<stop stop-color="#0078D4"/>
<stop offset="0.411937" stop-color="#8DC8E8"/>
<stop offset="0.896323" stop-color="#8661C5"/>
</linearGradient>
<linearGradient id="paint1_linear_1774_165835" x1="189.601" y1="45.5097" x2="176.973" y2="82.8155" gradientUnits="userSpaceOnUse">
<stop stop-color="#114A8B"/>
<stop offset="1" stop-color="#0669BC"/>
</linearGradient>
<linearGradient id="paint2_linear_1774_165835" x1="191.912" y1="44.4211" x2="205.773" y2="81.3516" gradientUnits="userSpaceOnUse">
<stop stop-color="#3CCBF4"/>
<stop offset="1" stop-color="#2892DF"/>
</linearGradient>
</defs>
</svg>
