<?xml version="1.0" encoding="UTF-8"?>
<svg width="48px" height="48px" viewBox="0 0 48 48" version="1.1" xmlns="http://www.w3.org/2000/svg" xmlns:xlink="http://www.w3.org/1999/xlink">
    <!-- Generator: Sketch 44.1 (41455) - http://www.bohemiancoding.com/sketch -->
    <title>Collections</title>
    <desc>Created with Sketch.</desc>
    <defs></defs>
    <g data-id="Page-2" stroke="none" stroke-width="1" fill="none" fill-rule="evenodd">
        <g data-id="Collections">
            <rect data-id="Rectangle-2" fill="#4B9996" x="0" y="0" width="48" height="48"></rect>
            <rect data-id="Rectangle-path" fill="#FFFFFF" fill-rule="nonzero" x="7" y="10" width="35" height="4"></rect>
            <rect data-id="Rectangle-path" fill="#FFFFFF" fill-rule="nonzero" x="11" y="19" width="10" height="2"></rect>
            <rect data-id="Rectangle-path" fill="#FFFFFF" fill-rule="nonzero" x="11" y="28" width="10" height="2"></rect>
            <path d="M6,9 L6,39 L42,39 L42,9 L6,9 Z M41,38 L7,38 L7,10 L41,10 L41,38 Z" data-id="Shape" fill="#FFFFFF" fill-rule="nonzero"></path>
            <path d="M37.2222222,20.5 L37.2222222,23.5 L24.7777778,23.5 L24.7777778,20.5 L37.2222222,20.5 L37.2222222,20.5 Z M39,19 L23,19 L23,25 L39,25 L39,19 L39,19 Z" data-id="Shape" fill="#FFFFFF" fill-rule="nonzero"></path>
            <path d="M37.2222222,29.5 L37.2222222,32.5 L24.7777778,32.5 L24.7777778,29.5 L37.2222222,29.5 L37.2222222,29.5 Z M39,28 L23,28 L23,34 L39,34 L39,28 L39,28 Z" data-id="Shape" fill="#FFFFFF" fill-rule="nonzero"></path>
        </g>
    </g>
</svg>